<mxfile host="app.diagrams.net" agent="Mozilla/5.0 (Windows NT 10.0; Win64; x64) AppleWebKit/537.36 (KHTML, like Gecko) Chrome/129.0.0.0 Safari/537.36 Edg/129.0.0.0" version="24.7.17">
  <diagram name="Página-1" id="rVDT1lRr0B5BSY1lFZze">
    <mxGraphModel dx="784" dy="773" grid="1" gridSize="10" guides="1" tooltips="1" connect="1" arrows="1" fold="1" page="1" pageScale="1" pageWidth="827" pageHeight="1169" math="0" shadow="0">
      <root>
        <mxCell id="0" />
        <mxCell id="1" parent="0" />
        <mxCell id="OXWgy4tYDgPB8yHZeR08-1" value="Médico&amp;nbsp;" style="rounded=0;whiteSpace=wrap;html=1;" vertex="1" parent="1">
          <mxGeometry x="70" y="140" width="120" height="60" as="geometry" />
        </mxCell>
        <mxCell id="OXWgy4tYDgPB8yHZeR08-2" value="Convênio" style="rounded=0;whiteSpace=wrap;html=1;" vertex="1" parent="1">
          <mxGeometry x="354" y="330" width="120" height="60" as="geometry" />
        </mxCell>
        <mxCell id="OXWgy4tYDgPB8yHZeR08-3" value="Consulta" style="rounded=0;whiteSpace=wrap;html=1;" vertex="1" parent="1">
          <mxGeometry x="414" y="140" width="120" height="60" as="geometry" />
        </mxCell>
        <mxCell id="OXWgy4tYDgPB8yHZeR08-4" value="Paciente" style="rounded=0;whiteSpace=wrap;html=1;" vertex="1" parent="1">
          <mxGeometry x="70" y="330" width="120" height="60" as="geometry" />
        </mxCell>
        <mxCell id="OXWgy4tYDgPB8yHZeR08-6" value="Endereço" style="rounded=0;whiteSpace=wrap;html=1;" vertex="1" parent="1">
          <mxGeometry x="250" y="230" width="120" height="60" as="geometry" />
        </mxCell>
        <mxCell id="OXWgy4tYDgPB8yHZeR08-7" value="" style="endArrow=oval;html=1;rounded=0;startArrow=none;startFill=0;endFill=1;" edge="1" parent="1">
          <mxGeometry width="50" height="50" relative="1" as="geometry">
            <mxPoint x="101" y="21.5" as="sourcePoint" />
            <mxPoint x="141" y="21.5" as="targetPoint" />
          </mxGeometry>
        </mxCell>
        <mxCell id="OXWgy4tYDgPB8yHZeR08-8" value="" style="endArrow=oval;html=1;rounded=0;startArrow=none;startFill=0;endFill=1;" edge="1" parent="1">
          <mxGeometry width="50" height="50" relative="1" as="geometry">
            <mxPoint x="101" y="41.5" as="sourcePoint" />
            <mxPoint x="141" y="41.5" as="targetPoint" />
          </mxGeometry>
        </mxCell>
        <mxCell id="OXWgy4tYDgPB8yHZeR08-10" value="" style="endArrow=oval;html=1;rounded=0;startArrow=none;startFill=0;endFill=0;" edge="1" parent="1">
          <mxGeometry width="50" height="50" relative="1" as="geometry">
            <mxPoint x="101" y="61.5" as="sourcePoint" />
            <mxPoint x="141" y="61.5" as="targetPoint" />
          </mxGeometry>
        </mxCell>
        <mxCell id="OXWgy4tYDgPB8yHZeR08-11" value="" style="endArrow=oval;html=1;rounded=0;startArrow=none;startFill=0;endFill=0;" edge="1" parent="1">
          <mxGeometry width="50" height="50" relative="1" as="geometry">
            <mxPoint x="101" y="81.5" as="sourcePoint" />
            <mxPoint x="141" y="81.5" as="targetPoint" />
          </mxGeometry>
        </mxCell>
        <mxCell id="OXWgy4tYDgPB8yHZeR08-12" value="ID (PK)" style="text;html=1;align=center;verticalAlign=middle;whiteSpace=wrap;rounded=0;" vertex="1" parent="1">
          <mxGeometry x="139" y="7.5" width="60" height="30" as="geometry" />
        </mxCell>
        <mxCell id="OXWgy4tYDgPB8yHZeR08-14" value="CRM (PK)" style="text;html=1;align=center;verticalAlign=middle;whiteSpace=wrap;rounded=0;" vertex="1" parent="1">
          <mxGeometry x="144" y="26.5" width="60" height="30" as="geometry" />
        </mxCell>
        <mxCell id="OXWgy4tYDgPB8yHZeR08-15" value="Especialidade" style="text;html=1;align=center;verticalAlign=middle;whiteSpace=wrap;rounded=0;" vertex="1" parent="1">
          <mxGeometry x="156" y="47.5" width="60" height="30" as="geometry" />
        </mxCell>
        <mxCell id="OXWgy4tYDgPB8yHZeR08-16" value="" style="endArrow=oval;html=1;rounded=0;startArrow=none;startFill=0;endFill=0;" edge="1" parent="1">
          <mxGeometry width="50" height="50" relative="1" as="geometry">
            <mxPoint x="100" y="102.5" as="sourcePoint" />
            <mxPoint x="140" y="102.5" as="targetPoint" />
          </mxGeometry>
        </mxCell>
        <mxCell id="OXWgy4tYDgPB8yHZeR08-17" value="" style="endArrow=oval;html=1;rounded=0;startArrow=none;startFill=0;endFill=0;" edge="1" parent="1">
          <mxGeometry width="50" height="50" relative="1" as="geometry">
            <mxPoint x="100" y="120.5" as="sourcePoint" />
            <mxPoint x="140" y="120.5" as="targetPoint" />
          </mxGeometry>
        </mxCell>
        <mxCell id="OXWgy4tYDgPB8yHZeR08-19" value="Nome" style="text;html=1;align=center;verticalAlign=middle;whiteSpace=wrap;rounded=0;" vertex="1" parent="1">
          <mxGeometry x="136" y="67" width="60" height="30" as="geometry" />
        </mxCell>
        <mxCell id="OXWgy4tYDgPB8yHZeR08-20" value="Telefone" style="text;html=1;align=center;verticalAlign=middle;whiteSpace=wrap;rounded=0;" vertex="1" parent="1">
          <mxGeometry x="140" y="106" width="60" height="30" as="geometry" />
        </mxCell>
        <mxCell id="OXWgy4tYDgPB8yHZeR08-21" value="Email" style="text;html=1;align=center;verticalAlign=middle;whiteSpace=wrap;rounded=0;" vertex="1" parent="1">
          <mxGeometry x="133" y="88" width="60" height="30" as="geometry" />
        </mxCell>
        <mxCell id="OXWgy4tYDgPB8yHZeR08-22" style="edgeStyle=orthogonalEdgeStyle;rounded=0;orthogonalLoop=1;jettySize=auto;html=1;exitX=0.5;exitY=1;exitDx=0;exitDy=0;" edge="1" parent="1">
          <mxGeometry relative="1" as="geometry">
            <mxPoint x="288" y="128.5" as="sourcePoint" />
            <mxPoint x="288" y="128.5" as="targetPoint" />
          </mxGeometry>
        </mxCell>
        <mxCell id="OXWgy4tYDgPB8yHZeR08-24" value="" style="endArrow=none;html=1;rounded=0;exitX=0.25;exitY=0;exitDx=0;exitDy=0;" edge="1" parent="1" source="OXWgy4tYDgPB8yHZeR08-1">
          <mxGeometry width="50" height="50" relative="1" as="geometry">
            <mxPoint x="380" y="120" as="sourcePoint" />
            <mxPoint x="100" y="20" as="targetPoint" />
          </mxGeometry>
        </mxCell>
        <mxCell id="OXWgy4tYDgPB8yHZeR08-25" value="" style="endArrow=oval;html=1;rounded=0;startArrow=none;startFill=0;endFill=1;" edge="1" parent="1">
          <mxGeometry width="50" height="50" relative="1" as="geometry">
            <mxPoint x="430" y="20.44" as="sourcePoint" />
            <mxPoint x="470" y="20.44" as="targetPoint" />
          </mxGeometry>
        </mxCell>
        <mxCell id="OXWgy4tYDgPB8yHZeR08-26" value="" style="endArrow=oval;html=1;rounded=0;startArrow=none;startFill=0;endFill=0;" edge="1" parent="1">
          <mxGeometry width="50" height="50" relative="1" as="geometry">
            <mxPoint x="430" y="46.5" as="sourcePoint" />
            <mxPoint x="470" y="46.5" as="targetPoint" />
          </mxGeometry>
        </mxCell>
        <mxCell id="OXWgy4tYDgPB8yHZeR08-27" value="" style="endArrow=oval;html=1;rounded=0;startArrow=none;startFill=0;endFill=0;" edge="1" parent="1">
          <mxGeometry width="50" height="50" relative="1" as="geometry">
            <mxPoint x="430" y="66.5" as="sourcePoint" />
            <mxPoint x="470" y="66.5" as="targetPoint" />
          </mxGeometry>
        </mxCell>
        <mxCell id="OXWgy4tYDgPB8yHZeR08-28" value="" style="endArrow=oval;html=1;rounded=0;startArrow=none;startFill=0;endFill=0;" edge="1" parent="1">
          <mxGeometry width="50" height="50" relative="1" as="geometry">
            <mxPoint x="430" y="86.5" as="sourcePoint" />
            <mxPoint x="470" y="86.5" as="targetPoint" />
          </mxGeometry>
        </mxCell>
        <mxCell id="OXWgy4tYDgPB8yHZeR08-29" value="Identificação" style="text;html=1;align=center;verticalAlign=middle;whiteSpace=wrap;rounded=0;" vertex="1" parent="1">
          <mxGeometry x="482" y="31.5" width="60" height="30" as="geometry" />
        </mxCell>
        <mxCell id="OXWgy4tYDgPB8yHZeR08-30" value="Empresa" style="text;html=1;align=center;verticalAlign=middle;whiteSpace=wrap;rounded=0;" vertex="1" parent="1">
          <mxGeometry x="473" y="51.5" width="60" height="30" as="geometry" />
        </mxCell>
        <mxCell id="OXWgy4tYDgPB8yHZeR08-31" value="" style="endArrow=oval;html=1;rounded=0;startArrow=none;startFill=0;endFill=0;" edge="1" parent="1">
          <mxGeometry width="50" height="50" relative="1" as="geometry">
            <mxPoint x="430" y="107.5" as="sourcePoint" />
            <mxPoint x="470" y="107.5" as="targetPoint" />
          </mxGeometry>
        </mxCell>
        <mxCell id="OXWgy4tYDgPB8yHZeR08-32" value="" style="endArrow=oval;html=1;rounded=0;startArrow=none;startFill=0;endFill=0;" edge="1" parent="1">
          <mxGeometry width="50" height="50" relative="1" as="geometry">
            <mxPoint x="430" y="125.5" as="sourcePoint" />
            <mxPoint x="470" y="125.5" as="targetPoint" />
          </mxGeometry>
        </mxCell>
        <mxCell id="OXWgy4tYDgPB8yHZeR08-33" value="Tipo" style="text;html=1;align=center;verticalAlign=middle;whiteSpace=wrap;rounded=0;" vertex="1" parent="1">
          <mxGeometry x="460" y="72" width="60" height="30" as="geometry" />
        </mxCell>
        <mxCell id="OXWgy4tYDgPB8yHZeR08-34" value="Co Participação" style="text;html=1;align=center;verticalAlign=middle;whiteSpace=wrap;rounded=0;" vertex="1" parent="1">
          <mxGeometry x="473" y="111" width="90" height="30" as="geometry" />
        </mxCell>
        <mxCell id="OXWgy4tYDgPB8yHZeR08-35" value="Vencimento" style="text;html=1;align=center;verticalAlign=middle;whiteSpace=wrap;rounded=0;" vertex="1" parent="1">
          <mxGeometry x="477" y="93" width="60" height="30" as="geometry" />
        </mxCell>
        <mxCell id="OXWgy4tYDgPB8yHZeR08-36" value="ID (PK)" style="text;html=1;align=center;verticalAlign=middle;whiteSpace=wrap;rounded=0;" vertex="1" parent="1">
          <mxGeometry x="467" y="5.5" width="60" height="30" as="geometry" />
        </mxCell>
        <mxCell id="OXWgy4tYDgPB8yHZeR08-37" value="" style="endArrow=none;html=1;rounded=0;exitX=0.132;exitY=-0.003;exitDx=0;exitDy=0;exitPerimeter=0;" edge="1" parent="1" source="OXWgy4tYDgPB8yHZeR08-3">
          <mxGeometry width="50" height="50" relative="1" as="geometry">
            <mxPoint x="430" y="139" as="sourcePoint" />
            <mxPoint x="430" y="20" as="targetPoint" />
          </mxGeometry>
        </mxCell>
      </root>
    </mxGraphModel>
  </diagram>
</mxfile>
